<svg xmlns="http://www.w3.org/2000/svg" width="16.286" height="12.215"><path d="M15.978 4.033a.191.191 0 01.309.15v6.505a1.527 1.527 0 01-1.527 1.527H1.527A1.527 1.527 0 010 10.688v-6.5a.19.19 0 01.309-.15c.713.553 1.657 1.256 4.9 3.614.671.49 1.8 1.52 2.933 1.514 1.136.01 2.29-1.043 2.936-1.514 3.246-2.359 4.187-3.065 4.9-3.619zm-7.835 4.11c.738.013 1.8-.929 2.335-1.317 4.221-3.063 4.542-3.33 5.516-4.094a.761.761 0 00.293-.6v-.6A1.527 1.527 0 0014.76 0H1.527A1.527 1.527 0 000 1.527v.6a.766.766 0 00.293.6c.973.76 1.295 1.031 5.516 4.094.534.393 1.596 1.335 2.334 1.322z"/></svg>