<svg xmlns="http://www.w3.org/2000/svg" width="18" height="18"><path d="M6.188 7.594h5.625a.562.562 0 00.563-.562v-.563a.562.562 0 00-.562-.562H6.188a.562.562 0 00-.562.563v.563a.562.562 0 00.562.561zm-.563 2.809a.562.562 0 00.563.563h5.625a.562.562 0 00.563-.562v-.56a.562.562 0 00-.562-.563H6.188a.562.562 0 00-.562.563zM9 14.665a2.808 2.808 0 01-1.647-.534L0 8.819v7.494a1.687 1.687 0 001.688 1.69h14.625A1.687 1.687 0 0018 16.313V8.819l-7.353 5.311A2.811 2.811 0 019 14.665zm8.353-8.936a54.123 54.123 0 00-1.041-.8V3.375a1.687 1.687 0 00-1.687-1.688H11.9l-.318-.231C10.99 1.026 9.816-.012 9 .003c-.816-.015-1.989 1.023-2.581 1.454l-.319.231H3.375a1.687 1.687 0 00-1.687 1.687v1.552c-.435.328-.73.558-1.041.8A1.687 1.687 0 000 7.057v.374l3.375 2.438V3.375h11.25v6.494L18 7.431v-.374a1.687 1.687 0 00-.647-1.328z"/></svg>