<svg xmlns="http://www.w3.org/2000/svg" width="20.715" height="20.715"><path d="M10.358 0a10.358 10.358 0 1010.357 10.358A10.357 10.357 0 0010.358 0zm3.437 14.935l-.472.471a1 1 0 00-.258.447c-.063.236-.114.475-.2.7l-.726 1.957a8.347 8.347 0 01-1.781.2v-1.143a3.127 3.127 0 00-.945-2.14 1.337 1.337 0 01-.391-.945v-1.337a1.332 1.332 0 00-.687-1.168c-.6-.332-1.454-.8-2.039-1.09a6.021 6.021 0 01-1.322-.908l-.033-.03a4.794 4.794 0 01-.754-.866c-.392-.575-1.03-1.521-1.445-2.136a8.4 8.4 0 014.31-4.255l1 .5a.668.668 0 00.967-.6V2.12a8.347 8.347 0 011.019-.1l1.184 1.18a.668.668 0 010 .945l-.2.2-.432.432a.334.334 0 000 .472l.2.2a.334.334 0 010 .472l-.334.334a.334.334 0 01-.236.1h-.376a.334.334 0 00-.233.095l-.414.4a.334.334 0 00-.066.389l.651 1.3a.334.334 0 01-.3.484h-.234a.334.334 0 01-.219-.082L8.641 8.6a.669.669 0 00-.649-.129l-1.3.434a.5.5 0 00-.065.92l.463.231a2.828 2.828 0 001.266.3c.439 0 .943 1.14 1.336 1.336h2.788a1.337 1.337 0 01.945.391l.572.572a1.274 1.274 0 01.373.9 1.944 1.944 0 01-.576 1.38zm3.621-3.815a1 1 0 01-.591-.416l-.751-1.126a1 1 0 010-1.112l.818-1.227a1 1 0 01.386-.34l.542-.271a8.091 8.091 0 01.814 4.8z"/></svg>