<svg xmlns="http://www.w3.org/2000/svg" width="19.723" height="15.779"><path d="M6.9 7.89a3.945 3.945 0 10-3.941-3.945A3.944 3.944 0 006.9 7.89zm2.761.986H9.15a5.365 5.365 0 01-4.493 0h-.515A4.143 4.143 0 000 13.018V14.3a1.48 1.48 0 001.479 1.479h8.472a1.48 1.48 0 01-.08-.656l.21-1.877.037-.342.243-.243 2.382-2.382a4.1 4.1 0 00-3.078-1.403zm1.4 4.478l-.21 1.88a.491.491 0 00.542.542l1.877-.21 4.25-4.25-2.21-2.21zm8.447-5.067L18.34 7.119a.738.738 0 00-1.042 0l-1.165 1.165-.126.126 2.213 2.21 1.288-1.288a.742.742 0 000-1.045z" fill="#f0f0f0"/></svg>